<?xml version="1.0" encoding="iso-8859-1"?>
<!-- Generator: Adobe Illustrator 19.1.0, SVG Export Plug-In . SVG Version: 6.00 Build 0)  -->
<svg version="1.1" id="Capa_1" xmlns="http://www.w3.org/2000/svg" xmlns:xlink="http://www.w3.org/1999/xlink" x="0px" y="0px"
	 viewBox="0 0 31.059 31.059" style="enable-background:new 0 0 31.059 31.059;" xml:space="preserve">
<g>
	<g>
		<path style="fill:#010002;" d="M30.171,31.059c-0.226,0-0.454-0.087-0.627-0.26L0.26,1.515c-0.347-0.346-0.347-0.908,0-1.255
			s0.908-0.347,1.255,0l29.284,29.284c0.347,0.347,0.347,0.908,0,1.255C30.625,30.972,30.399,31.059,30.171,31.059z"/>
	</g>
	<g>
		<path style="fill:#010002;" d="M0.888,31.059c-0.228,0-0.454-0.087-0.628-0.26c-0.347-0.347-0.347-0.908,0-1.255L29.544,0.26
			c0.347-0.347,0.908-0.347,1.255,0c0.347,0.347,0.347,0.909,0,1.255L1.515,30.799C1.342,30.972,1.115,31.059,0.888,31.059z"/>
	</g>
</g>
<g>
</g>
<g>
</g>
<g>
</g>
<g>
</g>
<g>
</g>
<g>
</g>
<g>
</g>
<g>
</g>
<g>
</g>
<g>
</g>
<g>
</g>
<g>
</g>
<g>
</g>
<g>
</g>
<g>
</g>
</svg>
