<svg xmlns="http://www.w3.org/2000/svg" viewBox="0 0 515.76 392.74"><title>login-icon-svg</title><path d="M279.59,432.47a183.54,183.54,0,0,0-57.49-1.66c-15.1,2-31.9,4.39-37.88,20.45-10.49,28.16,4.06,61,25.83,79.49,25.28,21.42,61.22,25.05,92.4,16.7,27.76-7.44,65.41-29.27,57.21-63.81-4-16.77-19.8-31.15-33.42-40.59-14.51-10-32.19-16.08-49.66-10.95-1.85.54-1.06,3.44.8,2.89,14.79-4.34,29.71-.22,42.59,7.56,12.49,7.55,24.79,18.63,32.34,31.24,8.87,14.83,5.56,32.57-5.39,45.39-9.78,11.44-24,18.52-38,23.2-28.59,9.52-62.11,9-88.13-7.47-23-14.56-39-41.9-36.49-69.49.77-8.56,3-18.52,10.4-23.86,6.61-4.79,15.69-5.95,23.55-7.18a179.59,179.59,0,0,1,60.59,1c1.89.35,2.7-2.54.8-2.89Z" transform="translate(-23.92 -429.29)"/><path d="M259.14,552a720.09,720.09,0,0,1-7.31,164.51c-.3,1.89,2.59,2.7,2.89.8A723.48,723.48,0,0,0,262.14,552c-.13-1.92-3.14-1.93-3,0Z" transform="translate(-23.92 -429.29)"/><path d="M266.24,634c15.95-1.07,31.9.94,47.84,0,14.64-.9,27.94-5.63,41.34-11.32,20.65-8.76,44-19.27,52.42-41.77.68-1.81-2.22-2.59-2.89-.8-8.48,22.58-33.42,32.64-54,41.24-13.2,5.51-26.24,9.36-40.64,9.83-14.69.48-29.36-1.13-44-.14-1.92.13-1.93,3.13,0,3Z" transform="translate(-23.92 -429.29)"/><path d="M259.7,630.23a112.78,112.78,0,0,1-76.39-25.31c-1.48-1.21-3.62.9-2.12,2.12a115.89,115.89,0,0,0,78.51,26.19c1.92-.09,1.93-3.09,0-3Z" transform="translate(-23.92 -429.29)"/><path d="M392.9,576.31a76.34,76.34,0,0,0,31.58,7,1.52,1.52,0,0,0,1.5-1.5l0-7.44a1.54,1.54,0,0,0-1.5-1.5L391,570.16c-1.92-.15-1.91,2.85,0,3l33.47,2.69-1.5-1.5,0,7.44,1.5-1.5a72.69,72.69,0,0,1-30.07-6.57c-1.74-.8-3.27,1.79-1.51,2.59Z" transform="translate(-23.92 -429.29)"/><path d="M409.09,571.8l4-22.06c.34-1.89-2.55-2.7-2.89-.8l-4,22.06c-.34,1.89,2.55,2.7,2.89.8Z" transform="translate(-23.92 -429.29)"/><path d="M413.07,546.59a154.59,154.59,0,0,1-15.58-59.14l-1.9,1.45,81.79,19.79-.66-2.51c-5.53,5.22-12.81,7-19.68,9.77a55.63,55.63,0,0,0-13.88,8.33c-9.5,7.58-18.42,18.34-31.44,18.94-1.92.09-1.93,3.09,0,3,12.51-.58,21.36-9.52,30.37-17.17a61.63,61.63,0,0,1,18.65-11.31c6.51-2.43,12.95-4.57,18.11-9.43a1.51,1.51,0,0,0-.66-2.51L396.39,486a1.51,1.51,0,0,0-1.9,1.45,158.43,158.43,0,0,0,16,60.66c.85,1.73,3.44.21,2.59-1.51Z" transform="translate(-23.92 -429.29)"/><path d="M245,471c.31-.39-.2-.14-.06,0s.21.11.19.14c.16-.24-.12.08-.18.1a1.36,1.36,0,0,1-.58.14c-1.36,0-1.73-1.93-1.87-2.94l-1.45,1.9,4.4-.13c1.93-.06,1.93-3.06,0-3l-4.4.13a1.53,1.53,0,0,0-1.45,1.9,6.17,6.17,0,0,0,2.66,4.59,4.17,4.17,0,0,0,4.79-.43,3,3,0,0,0,.15-4.38c-1.14-1.16-3.23-1.5-4.34-.12s.91,3.63,2.12,2.12Z" transform="translate(-23.92 -429.29)"/><path d="M290.84,473.07a2.28,2.28,0,0,1,2-1.58c.22,0,.47.07.67,0l.26.08q-.4-.58-.32-.25s-.08.5-.1.56-.39.31-.15.26-.17-.11-.25-.16a2.25,2.25,0,0,1-.54-.46,1.23,1.23,0,0,1-.22-1.22,1.48,1.48,0,0,1,2.1-.49c1.63,1,3.14-1.55,1.51-2.59a4.48,4.48,0,0,0-6.56,2.41c-.71,2.64,2,6.4,4.94,5.34a3.77,3.77,0,0,0,2.27-3.3,2.76,2.76,0,0,0-2.14-3.06,5.34,5.34,0,0,0-6.33,3.63,1.5,1.5,0,0,0,2.89.8Z" transform="translate(-23.92 -429.29)"/><path d="M258.93,527.34a21,21,0,0,0,18.13,2.81c1.84-.55,1.06-3.45-.8-2.89a18.08,18.08,0,0,1-15.82-2.5c-1.6-1.1-3.1,1.5-1.51,2.59Z" transform="translate(-23.92 -429.29)"/><path d="M130.47,533.14,86.24,570.66a1.5,1.5,0,0,0,0,2.12c5.36,4.46,11.71,6.27,18.45,7.57,8.55,1.65,16.85,3.39,24.88,6.87A100.65,100.65,0,0,1,151.83,601c5.24,4.12,10.81,8.64,17.53,9.93a20.36,20.36,0,0,0,16.28-4.17c3.67-2.77,10.78-9.45,10.18-14.62-.37-3.17-3.44-6-5.24-8.4L181.14,571l-17.69-23.83-10-13.5c-2.42-3.26-4.75-7.74-8.06-10.22-5.48-4.11-10.85,1.49-13.88,5.8-1.11,1.58,1.49,3.08,2.59,1.51,2.06-2.93,5.62-7.92,10.1-4.38,1.93,1.53,3.43,4.44,4.9,6.41l8.26,11.12,16.51,22.24,9.44,12.71c2.57,3.46,6.55,7.22,8.26,11.12,3.42,7.84-9.38,17.09-16.17,18.07-8.8,1.27-16.18-5.13-22.61-10.18a99.7,99.7,0,0,0-19.34-12.21,94.33,94.33,0,0,0-21.91-7.11c-8.06-1.58-16.58-2.45-23.13-7.91v2.12l44.23-37.52c1.47-1.25-.66-3.36-2.12-2.12Z" transform="translate(-23.92 -429.29)"/><path d="M75.34,717.1l203-1.58,101.51-.79,51.75-.4c7.85-.06,15.84-.57,23.68-.05,9.5.63,15.11,6,21.22,12.74A438.14,438.14,0,0,1,536.9,812.3l1.3-2.26c-66.63,2.17-133.26,4.49-199.9,6.41s-133.14,3.22-199.71,2.24c-37.74-.55-75.47-1.86-113.15-4.16l1.3,2.26c10.79-16.93,15-36.76,20.05-55.91,5.14-19.45,11.56-39.33,27.55-52.65,1.48-1.24-.65-3.35-2.12-2.12-32.38,27-26.66,75.55-48.08,109.17a1.52,1.52,0,0,0,1.3,2.26c66.44,4.05,133,5,199.58,4.28s133.16-2.92,199.73-5.09L538.2,813a1.52,1.52,0,0,0,1.3-2.26A442.24,442.24,0,0,0,487,734.33c-9.07-10.59-17.45-22.46-32.48-23.11-17.16-.74-34.54.19-51.72.32l-209,1.63-118.43.92a1.5,1.5,0,0,0,0,3Z" transform="translate(-23.92 -429.29)"/></svg>