<svg xmlns="http://www.w3.org/2000/svg" viewBox="0 0 158.03 326.21"><title>verify-code-icon</title><path d="M74.74,10.49c-18.58-9.1-41.24.09-52,16.89C16.59,37,14,48.64,14,60c0,10.11.92,25,8.69,32.45,8.62,8.3,23.2,12.3,34.58,14.35a108.54,108.54,0,0,0,36.87.59c11.56-1.95,21.54-7.64,27.48-18,6.08-10.57,6.8-23.08,4.65-34.87-2.23-12.21-7-25.88-16.86-34.07C99,11.84,84.87,11.87,72,12.21c-1.93.05-1.93,3.05,0,3,10.66-.28,22.36-.63,31.85,5,9.23,5.49,14.15,15.72,17.19,25.62,6.5,21.2,3.92,49.16-20.56,57-10.22,3.26-21.72,3.27-32.32,2.41a93.5,93.5,0,0,1-34.59-9.32c-4.75-2.4-9.55-5.07-12-10.05-2.2-4.51-3.07-10-3.78-15-1.55-10.8-1-22.1,2.79-32.41,7.44-20.4,31.44-35.76,52.6-25.4,1.73.85,3.25-1.74,1.51-2.59Z" transform="translate(-9.91 -6.91)"/><path d="M57,108.22q0,63-3.37,125.86c-.5,9.44,0,20-2.87,29.05-3,9.4-12,15.23-17.88,22.81C22.44,299.45,16.16,315.54,10,331.32c-.7,1.8,2.2,2.58,2.89.8,5.21-13.39,10.51-26.91,18.47-39,4.15-6.28,9.14-11.48,14.39-16.81a30.67,30.67,0,0,0,8.68-15.57C55.89,254,55.91,246.9,56.3,240q.72-12.87,1.3-25.75,1.11-24.76,1.71-49.54.68-28.25.68-56.51a1.5,1.5,0,0,0-3,0Z" transform="translate(-9.91 -6.91)"/><path d="M55.45,266.87a170.65,170.65,0,0,1,33.68-5.66c10.84-.69,22.6-1,33.28,1.34,11.21,2.42,15.38,11.76,21.53,20.24a96.69,96.69,0,0,0,19.59,19.95c1.53,1.18,3-1.43,1.51-2.59-9.33-7.17-16.58-15.8-23-25.59-5.19-7.89-10.83-13.53-20.45-15.22-21.88-3.83-45.63-1.12-66.92,4.63a1.5,1.5,0,0,0,.8,2.89Z" transform="translate(-9.91 -6.91)"/><path d="M57,161.25a60.71,60.71,0,0,0,39.64,11.44c1.92-.12,1.93-3.12,0-3a58.11,58.11,0,0,1-38.13-11c-1.57-1.13-3.07,1.47-1.51,2.59Z" transform="translate(-9.91 -6.91)"/><path d="M60.27,159.56c12.43-5.21,21.49-12.9,30.68-22.55,5.18-5.44,10.66-10.14,18-12.38s15-2.31,22.62-2.38a1.5,1.5,0,0,0,0-3c-13.31.13-26.41,1-36.95,10-5.12,4.38-9.27,9.75-14.22,14.31a71,71,0,0,1-20.9,13.07c-1.75.73-1,3.64.8,2.89Z" transform="translate(-9.91 -6.91)"/><path d="M95,179.33c10.92-14.64,21.61-29.18,31.22-44.72,2.3-3.72,4.84-6.88,8.68-9.06,3.64-2.07,7.84-2.95,11.59-4.8,6.36-3.14,10.28-8.75,13.8-14.71l-2.05.54,7.45,3.52-.54-2.05a49,49,0,0,0-5.87,12.67c-1.42,4.89-1.19,10-2.49,14.87-1.41,5.24-5.38,8.63-8.29,13-2.73,4.1-4.56,8.71-7.16,12.88C135.4,171,127.21,179.32,120,187.86c-1.31,1.54-3.46,5.3-5.34,6.23-3.35,1.67-7-.73-9.81-2.47a38.41,38.41,0,0,1-11.88-11.86l-.23,1.82,2.64-3.2c1.22-1.48-.89-3.61-2.12-2.12l-2.64,3.2a1.55,1.55,0,0,0-.23,1.82,42.35,42.35,0,0,0,9.8,10.75c3.05,2.33,8.82,6.62,13,6.08s7.6-6.57,10.15-9.58c4.47-5.28,9-10.52,13.41-15.85a83.25,83.25,0,0,0,9.66-14.05A111.08,111.08,0,0,1,156,143.85c3.31-4.44,4-9.06,4.63-14.43a46.52,46.52,0,0,1,7.1-19.86,1.51,1.51,0,0,0-.54-2.05L159.76,104a1.54,1.54,0,0,0-2.05.54c-2.23,3.77-4.56,7.63-7.92,10.53s-7.64,4.22-11.76,5.85a27.66,27.66,0,0,0-14.39,12.2c-9.6,15.55-20.29,30.08-31.22,44.72-1.15,1.55,1.45,3,2.59,1.51Z" transform="translate(-9.91 -6.91)"/><path d="M60.18,43.9l0,.1q0,.22,0,.05t0,0q0,.16.05-.07l-1.45,1.1c.53-.06-.8-.26-.88-.69a.8.8,0,0,1,.3-.8c.1-.06.32-.06.19-.09H58.2q.23,0,0,0l.36,2.74.12-.08q-.18.06,0,0h0a.22.22,0,0,1-.17,0,1.53,1.53,0,0,0,1.85-1,1.52,1.52,0,0,0-1-1.85,3,3,0,0,0-2.25.37,1.51,1.51,0,0,0-.72,1.49,1.48,1.48,0,0,0,1.07,1.25c1.34.28,3,0,3.46-1.51.37-1.25-.55-2.95-2-2.77a1.61,1.61,0,0,0-1.45,1.1,2.65,2.65,0,0,0,.22,2.24,1.5,1.5,0,0,0,2.59-1.51Z" transform="translate(-9.91 -6.91)"/><path d="M90.37,49.14l.57-.53-2.56-1.06a.54.54,0,0,1,.09-.26q.17-.18,0,0a.56.56,0,0,1,.49-.15c.23,0,.3.18.38.37q-.07-.25,0,0t0,0l-1.45,1.1a.84.84,0,0,1-.81-.56,1.5,1.5,0,1,0,2.89-.8,2.28,2.28,0,0,0-2.08-1.64,1.51,1.51,0,0,0-1.45,1.1,2.53,2.53,0,1,0,4.93.74,1.52,1.52,0,0,0-2.56-1.06l-.57.53a1.5,1.5,0,0,0,2.12,2.12Z" transform="translate(-9.91 -6.91)"/><path d="M62,79.43q16,1.16,32,2.46v-3h-1.2a1.5,1.5,0,0,0,0,3h1.2c2,0,1.9-2.85,0-3q-16-1.3-32-2.46c-1.93-.14-1.92,2.86,0,3Z" transform="translate(-9.91 -6.91)"/><path d="M55.83,35.43a10.29,10.29,0,0,1,8.42,2.62c1.43,1.29,3.56-.82,2.12-2.12A13.54,13.54,0,0,0,55,32.54c-1.9.28-1.09,3.17.8,2.89Z" transform="translate(-9.91 -6.91)"/><path d="M69.64,76.35c-.63-2.54-1.69-6.91,1.6-7.9a10.21,10.21,0,0,1,5.92.11C82,70.07,83.6,74.43,84.62,79c.42,1.88,3.32,1.09,2.89-.8C86,71.37,82.32,65.48,74.69,65.08c-2.43-.13-6.07.35-7.73,2.38-2,2.41-.87,7-.21,9.68.46,1.87,3.36,1.08,2.89-.8Z" transform="translate(-9.91 -6.91)"/><path d="M76.21,77V75.22a1.5,1.5,0,1,0-3,0V77a1.5,1.5,0,0,0,3,0Z" transform="translate(-9.91 -6.91)"/></svg>